<?xml version="1.0" encoding="UTF-8"?>
<!DOCTYPE svg PUBLIC "-//W3C//DTD SVG 1.1//EN" "http://www.w3.org/Graphics/SVG/1.1/DTD/svg11.dtd">
<!-- Creator: CorelDRAW 2020 (64-Bit) -->
<svg xmlns="http://www.w3.org/2000/svg" xml:space="preserve" width="62.4831mm" height="39.7325mm" version="1.1" style="shape-rendering:geometricPrecision; text-rendering:geometricPrecision; image-rendering:optimizeQuality; fill-rule:evenodd; clip-rule:evenodd"
viewBox="0 0 6252.46 3975.89"
 xmlns:xlink="http://www.w3.org/1999/xlink"
 xmlns:xodm="http://www.corel.com/coreldraw/odm/2003">
 <defs>
  <style type="text/css">
   <![CDATA[
    .fil0 {fill:#18B8F2}
    .fil1 {fill:#18B8F2;fill-rule:nonzero}
   ]]>
  </style>
 </defs>
 <g id="Livello_x0020_1">
  <metadata id="CorelCorpID_0Corel-Layer"/>
  <path class="fil0" d="M-0 1665.64l353 0 0 1479.68c-230.15,28.94 -353,58.78 -353,58.78l0 -1538.46zm5398.14 -1609.38c99.03,0 179.32,64.12 179.32,143.25 13.17,226.66 -296.37,369.36 -296.37,369.36l-50.49 -47.2c77.57,-59.97 114.1,-132.71 130.99,-181.89 -81.51,-13.49 -142.77,-71.16 -142.77,-140.26 0,-79.12 80.28,-143.25 179.33,-143.25zm175.49 608.72l0 186.59c0,0 -245.88,-62.56 -284.3,41.72 -38.42,104.27 356.73,216.24 356.73,416.03 0,199.76 -277.7,249.71 -313.38,250.26 -35.67,0.55 -243.13,16.46 -359.49,-25.25l0 -188.26c0,0 351.26,98.81 351.26,-40.62 0,-139.39 -353.45,-123.5 -353.45,-390.23 0,-266.75 346.86,-281.01 602.63,-250.25zm-2036.47 -597.16l495.26 0 337.2 537.41 337.2 -537.41 495.26 0 -608.39 878.7 0 623.26 -224.07 0 -224.08 0 0 -623.26 -608.38 -878.7zm-1023.95 32c0,0 416.23,-94.83 779.78,0 437.17,114.04 443.24,678.34 57.96,832.46l503.83 637.5 -457.74 0 -430.72 -574.29 -52.68 0 0 574.29 -400.43 0 0 -1469.97zm400.43 257.81c0,0 320.89,-9.24 300.32,199.54 -20.57,208.78 -300.32,199.56 -300.32,199.56l0 -399.11zm-2913.63 -357.64l400.43 0 521.61 0 0 310.87 -521.61 0 0 316.12 458.38 0 0 310.85 -458.38 0 0 316.13 521.61 0 0 310.86 -521.61 0 -400.43 0 0 -310.86 0 -316.13 0 -310.85 0 -316.12 0 -310.87zm1375.14 773.83l0 795.96 -353 0 0 -1522.66 70.3 0 941.31 834.7 0 -818.9 351.14 0 0 1198.59c0.92,117.65 1.63,264.51 0,323.89 -0.36,6.91 -8.55,37.39 -56.93,26.16l-952.81 -837.73zm2469.43 1602.69l0 829.94 -264.89 0 -88.12 0 -307.95 0 -103.36 -225.02 -242.59 0 -242.58 0 -87.49 190.45c-384.54,-48.65 -731.79,-71.45 -1036.73,-78.08l0 -200.29 0 -1227.89 353 0 0 1227.89 418.69 0 595.11 -1267.68 653.9 1392.94 0 -1368.94 70.3 0 941.31 834.7 0 -818.9 351.14 0 0 1198.59c0.92,117.65 1.62,264.49 0,323.89 -0.37,6.9 -8.55,37.39 -56.93,26.15l-952.81 -837.73zm1788.01 -40.06l-0.55 41.17 36.77 -27.99 -36.22 -13.18zm-4353.06 -645.92c-261.2,-101.85 -757.38,26.76 -757.38,406.14 0,377.13 511.15,555.13 432.48,728.84 -52.69,116.34 -322.71,76.82 -419.31,15.37l0 284.33c189.59,-18.09 426.56,-32.43 706.2,-33.51 68.19,-72.1 112.64,-178.11 112.64,-332.06 0,0 15.38,-215.14 -270.02,-423.68 -285.39,-208.56 -140.5,-441.27 182.21,-324.92l19.76 12.06 -6.58 -332.57zm3697.81 -20.83c0,0 1270.72,-248.07 1275.12,752.44 3.29,750.29 -715.45,798.43 -1075.14,775.58 280.69,-229.92 573.47,-620.93 573.47,-620.93l16.46 -3.28 -5.48 60.38 73.54 -36.23 -36.21 111.95 54.89 -36.2 5.48 103.18 20.85 -28.55c57.08,-73.54 54.89,-214.05 54.89,-214.05l88.91 74.66c6.58,-58.19 -54.89,-96.61 -59.28,-121.85 -4.38,-25.25 14.27,-41.71 14.27,-41.71l42.81 61.47 18.66 -19.76 35.12 62.56c29.64,-194.27 -132.82,-197.58 -132.82,-197.58 28.55,-43.9 72.45,-49.38 72.45,-49.38 -135.01,-90.01 -268.93,24.15 -268.93,24.15l-2.19 -18.65c2.19,-24.15 -45,-69.16 -45,-69.16l83.42 23.05c2.2,-40.61 -103.18,-81.22 -111.96,-99.89 -8.78,-18.66 3.3,-31.84 3.3,-31.84l58.17 26.36 10.98 -18.67 73.55 57.08c-60.37,-205.27 -250.27,-156.95 -250.27,-156.95 0,-19.77 -41.72,-25.26 -41.72,-25.26 16.46,-37.31 116.36,-62.56 116.36,-62.56 -175.63,-50.5 -250.27,73.55 -250.27,73.55 -63.66,-68.08 -158.06,-90.01 -158.06,-90.01l52.68 59.27 -52.68 0 65.86 74.63c-92.21,-39.52 -166.85,85.62 -166.85,85.62 79.03,-61.47 105.38,-26.34 105.38,-26.34 -107.57,140.49 -87.82,243.67 -87.82,243.67l96.59 -100.97c-19.75,122.92 90.01,254.65 90.01,254.65l-4.39 -140.5 32.93 0 2.19 -96.59c37.32,-28.55 70.26,32.92 70.26,32.92 -65.8,484.88 -344.66,736.13 -459.52,820.65l0 -1470.87zm109.36 1505.31c0,0 360.81,-443.14 388.56,-836.45 0,0 51.6,-5.48 42.28,36.23l69.16 -53.24c0,0 25.79,63.66 8.23,70.8 -17.56,7.13 -70.25,11.52 -102.08,114.16l80.67 -48.85c0,0 -29.54,140.98 -0.01,222.28 0,0 2.2,-77.94 31.83,-86.72 29.64,-8.78 47.2,-7.69 47.2,-7.69 0,0 -13.17,-61.47 16.47,-72.45 29.63,-10.97 48.29,38.44 48.29,38.44 0,0 -368.83,534.54 -630.6,623.48zm-2249.02 -845.58l-129.53 353.43 129.53 0 129.53 0 -129.53 -353.43z"/>
  <path class="fil1" d="M179.68 3716.48c47.83,-17.18 79.11,-57.03 79.11,-103.02 0,-34.95 -12.89,-61.94 -34.95,-80.94 -27.6,-23.31 -65.62,-34.36 -123.26,-34.36 -38.03,0 -74.82,4.3 -100.58,9.84l0 459.32c19,1.83 47.83,4.9 86.47,4.9 70.53,0 120.8,-13.49 152.08,-44.16 21.46,-20.84 37.4,-50.29 37.4,-91.99 0,-70.51 -52.11,-107.31 -96.27,-117.74l0 -1.84zm-128.79 -15.32l0 -158.85c9.2,-2.44 25.16,-4.28 52.13,-4.28 63.77,0 104.24,23.92 104.24,79.1l0 0.61c0,47.84 -39.86,83.42 -101.8,83.42l-54.58 0zm0 39.24l49.07 0c61.93,0 122.63,25.77 122.63,95.66 0,70.53 -57.64,95.67 -122.02,95.67 -21.46,0 -38.03,-0.61 -49.68,-3.07l0 -188.27zm655.32 -239.17l-50.89 0 0 283.12c0,103.86 -44.77,149.22 -112.22,149.22 -61.33,0 -107.94,-42.92 -107.94,-149.22l0 -283.12 -50.88 0 0 282.51c0,141.24 69.3,192.16 156.37,192.16 93.21,0 165.57,-54.58 165.57,-195.22l0 -279.45zm356.68 15.35c-17.8,-11.06 -51.52,-22.08 -95.68,-22.08 -85.24,0 -142.87,52.12 -142.87,123.25 0,64.4 47.83,105.47 118.35,131.85 60.72,24.55 85.86,52.76 85.86,98.76 0,50.27 -36.8,84 -99.35,84 -38.03,0 -75.42,-12.27 -100.58,-28.81l-14.1 42.31c23.31,16.54 69.29,29.43 111.61,29.43 100.57,0 154.53,-57.03 154.53,-131.23 0,-66.86 -38.64,-105.48 -114.07,-137.37 -62.55,-26.38 -90.76,-49.67 -90.76,-95.67 0,-33.71 24.54,-73.59 89.54,-73.59 39.25,0 68.69,12.89 82.17,21.47l15.34 -42.31zm127.91 451.96l50.89 0 0 -467.31 -50.89 0 0 467.31zm513.65 -467.31l-48.44 0 0 203.6c0,73.61 1.22,129.42 6.13,194.41l-1.23 0.62c-21.46,-48.46 -48.45,-96.89 -81.56,-152.71l-150.85 -245.91 -53.36 0 0 467.31 47.83 0 0 -206.06c0,-80.95 -0.61,-135.54 -4.91,-195.03l2.46 -0.61c22.68,51.53 52.73,103.65 84.01,155.76l149.03 245.93 50.89 0 0 -467.31zm379.34 424.36l-195.62 0 0 -180.9 174.17 0 0 -42.31 -174.17 0 0 -158.23 185.2 0 0 -42.93 -236.1 0 0 467.31 246.51 0 0 -42.95zm327.85 -409.01c-17.79,-11.06 -51.51,-22.08 -95.67,-22.08 -85.25,0 -142.88,52.12 -142.88,123.25 0,64.4 47.83,105.47 118.36,131.85 60.71,24.55 85.85,52.76 85.85,98.76 0,50.27 -36.79,84 -99.35,84 -38.03,0 -75.42,-12.27 -100.58,-28.81l-14.09 42.31c23.31,16.54 69.29,29.43 111.6,29.43 100.58,0 154.54,-57.03 154.54,-131.23 0,-66.86 -38.64,-105.48 -114.07,-137.37 -62.55,-26.38 -90.77,-49.67 -90.77,-95.67 0,-33.71 24.55,-73.59 89.54,-73.59 39.25,0 68.69,12.89 82.18,21.47l15.33 -42.31zm351.76 0c-17.8,-11.06 -51.52,-22.08 -95.68,-22.08 -85.24,0 -142.87,52.12 -142.87,123.25 0,64.4 47.83,105.47 118.35,131.85 60.72,24.55 85.86,52.76 85.86,98.76 0,50.27 -36.79,84 -99.35,84 -38.03,0 -75.42,-12.27 -100.58,-28.81l-14.09 42.31c23.3,16.54 69.28,29.43 111.6,29.43 100.57,0 154.54,-57.03 154.54,-131.23 0,-66.86 -38.64,-105.48 -114.08,-137.37 -62.55,-26.38 -90.76,-49.67 -90.76,-95.67 0,-33.71 24.54,-73.59 89.54,-73.59 39.25,0 68.69,12.89 82.18,21.47l15.33 -42.31zm537.81 396.76c-23.3,11.03 -58.26,19 -93.82,19 -109.15,0 -175.4,-72.37 -175.4,-195.02 0,-128.77 72.36,-199.91 178.46,-199.91 36.79,0 66.84,8.6 88.3,19.01l13.5 -42.93c-14.72,-7.36 -47.22,-19 -103.02,-19 -136.76,0 -230.59,93.82 -230.59,244.68 0,158.22 96.9,236.1 217.09,236.1 53.36,0 95.05,-10.43 116.52,-20.84l-11.04 -41.09zm295.95 -170.48c49.68,-17.78 87.08,-57.65 87.08,-119.58 0,-34.96 -12.87,-66.85 -34.94,-87.09 -27.61,-25.77 -67.46,-38.04 -128.18,-38.04 -36.78,0 -77.27,3.69 -106.09,9.84l0 460.55 50.89 0 0 -206.68 57.04 0c55.2,0 80.94,28.82 94.44,93.82 12.26,58.27 22.7,99.36 30.05,112.85l52.73 0c-9.2,-17.79 -19.61,-58.89 -34.33,-126.34 -11.03,-50.9 -32.5,-85.84 -68.69,-97.5l0 -1.83zm-131.24 -20.25l0 -179.07c10.44,-2.43 30.05,-4.89 57.66,-4.89 57.03,0 109.15,21.46 109.15,90.76 0,56.42 -41.71,93.2 -106.71,93.2l-60.1 0zm577.43 202.98l-195.62 0 0 -180.9 174.17 0 0 -42.31 -174.17 0 0 -158.23 185.2 0 0 -42.93 -236.1 0 0 467.31 246.51 0 0 -42.95zm283.69 -424.36l-58.88 0 -154.54 467.31 52.13 0 49.05 -151.48 162.52 0 50.29 151.48 53.97 0 -154.54 -467.31zm-101.8 275.35l46.61 -140.44c8.58,-29.43 17.16,-58.85 23.3,-87.08l1.84 0c6.13,27.62 14.11,57.04 23.92,88.93l45.99 138.59 -141.65 0zm608.08 -275.35l-326.25 0 0 42.93 137.37 0 0 424.38 50.89 0 0 -424.38 137.98 0 0 -42.93zm79.48 467.31l50.88 0 0 -467.31 -50.88 0 0 467.31zm360.94 -474.66c-117.13,0 -203.6,92.6 -203.6,244.68 0,145.94 82.18,237.33 198.08,237.33 110.38,0 202.37,-80.94 202.37,-245.31 0,-141.04 -77.27,-236.7 -196.86,-236.7zm-2.45 42.31c99.97,0 145.96,103.03 145.96,196.86 0,106.69 -50.9,200.51 -147.18,200.51 -95.05,0 -146.57,-96.89 -146.57,-196.24 0,-99.34 44.77,-201.13 147.79,-201.13zm634.46 -34.96l-48.44 0 0 203.6c0,73.61 1.22,129.42 6.13,194.41l-1.22 0.62c-21.46,-48.46 -48.46,-96.89 -81.57,-152.71l-150.85 -245.91 -53.36 0 0 467.31 47.83 0 0 -206.06c0,-80.95 -0.61,-135.54 -4.91,-195.03l2.46 -0.61c22.69,51.53 52.74,103.65 84.01,155.76l149.03 245.93 50.89 0 0 -467.31z"/>
  <path class="fil1" d="M6019.09 3523.55l0 -94.21 41.75 0c8.41,0 14.78,0.85 19.14,2.54 4.36,1.69 7.86,4.67 10.46,8.95 2.61,4.28 3.9,9.02 3.9,14.18 0,6.7 -2.17,12.33 -6.48,16.92 -4.32,4.57 -10.99,7.46 -20.02,8.73 3.31,1.57 5.81,3.15 7.52,4.69 3.64,3.33 7.07,7.52 10.31,12.55l16.29 25.66 -15.57 0 -12.46 -19.6c-3.61,-5.68 -6.62,-10.01 -8.97,-13.01 -2.37,-3.01 -4.47,-5.08 -6.33,-6.29 -1.84,-1.19 -3.75,-2.02 -5.68,-2.5 -1.4,-0.28 -3.7,-0.44 -6.92,-0.44l-14.43 0 0 41.85 -12.5 0zm12.5 -52.64l26.75 0c5.7,0 10.14,-0.59 13.34,-1.76 3.19,-1.16 5.63,-3.06 7.27,-5.67 1.67,-2.57 2.5,-5.39 2.5,-8.43 0,-4.46 -1.6,-8.15 -4.82,-11.01 -3.22,-2.88 -8.32,-4.3 -15.27,-4.3l-29.77 0 0 31.17z"/>
  <path class="fil0" d="M6060.52 3389.01c48.29,0 87.44,39.15 87.44,87.44 0,48.29 -39.15,87.43 -87.44,87.43 -48.29,0 -87.44,-39.14 -87.44,-87.43 0,-48.29 39.15,-87.44 87.44,-87.44zm0 12.51c41.38,0 74.92,33.55 74.92,74.93 0,41.37 -33.54,74.92 -74.92,74.92 -41.38,0 -74.92,-33.55 -74.92,-74.92 0,-41.38 33.54,-74.93 74.92,-74.93z"/>
 </g>
</svg>
